/* XPM */
static char * changer_xpm[] = {
"16 16 2 1",
" 	c #0A05B6",
".	c #7D7C80",
"   ..      ..   ",
"                ",
".      ..      .",
" .    .. .    ..",
"..    ....    ..",
"..    ....    ..",
".      ..      .",
"                ",
"   ..      ..   ",
"  .. .    .. .  ",
"  ....    ....  ",
"  ....    ....  ",
"   ..      ..   ",
"                ",
".      ..      .",
" .    .. .    .."};
