#define cur_digger_m_width 16
#define cur_digger_m_height 16
static unsigned char cur_digger_m_bits[] = {
  0x78, 0x1e, 0xf8, 0x1f, 0xfe, 0x7f, 0xfe, 0x7f, 0xfe, 0x7f, 0xfe, 0x7f,
  0xfc, 0x3f, 0xfe, 0x7f, 0xfe, 0x7f, 0xfe, 0x7f, 0xfc, 0x3f, 0xfc, 0x3f,
  0xfc, 0x3f, 0xff, 0xff, 0x3f, 0xfc, 0x3f, 0xfc, };
