#define cur_digger_s_width 16
#define cur_digger_s_height 16
static unsigned char cur_digger_s_bits[] = {
  0x00, 0x00, 0x30, 0x0c, 0xf0, 0x0f, 0xcc, 0x33, 0xcc, 0x33, 0xf0, 0x0f,
  0x00, 0x00, 0xf8, 0x1f, 0xe4, 0x27, 0xf8, 0x1f, 0xe0, 0x07, 0xf8, 0x1f,
  0xf8, 0x1f, 0x18, 0x18, 0x1e, 0x78, 0x00, 0x00, };
