/* XPM */
static char * diamond2_xpm[] = {
"16 16 3 1",
" 	c #030205",
".	c #E7E95D",
"X	c #CD871B",
"                ",
"      ...       ",
"                ",
"                ",
"                ",
"  XXXXXXXXXXX   ",
" XXXXXXXXXXXXX  ",
"XX            X ",
"                ",
"                ",
"                ",
"  ...........   ",
"   XXXXXXXXX    ",
"    X     X     ",
"                ",
"                "};
