/* XPM */
static char * diamond4_xpm[] = {
"16 16 3 1",
" 	c #030205",
".	c #E7E95D",
"X	c #CD871B",
"                ",
"      ...       ",
"     .....      ",
"    .     .     ",
"                ",
"                ",
"                ",
"XX            X ",
"............... ",
"............... ",
"                ",
"                ",
"                ",
"    X     X     ",
"     XXXXX      ",
"      XXX       "};
