/* XPM */
static char * digger_up1_xpm[] = {
"16 16 4 1",
" 	c #030205",
".	c #CD871B",
"X	c #2DE7C0",
"o	c #CA1CBB",
"                ",
"                ",
"    ..    ..    ",
"    ........    ",
"  ............  ",
"  ............  ",
"    ........    ",
"                ",
"   XXXXXXXXXX   ",
" XX  XXXXXX  X  ",
"     XXXXXXXX   ",
"     XXXXXX     ",
"   oooooooooo   ",
"   oooooooooo   ",
"   oo      oooo ",
" oooo           "};
