/* XPM */
static char * digger_eye2_xpm[] = {
"16 16 4 1",
" 	c #030205",
".	c #CD871B",
"X	c #2DE7C0",
"o	c #CA1CBB",
"                ",
"                ",
"    ..    ..    ",
"    ........    ",
"  ............  ",
"  ............  ",
"    ........    ",
"                ",
"   XXXXXXXXXX   ",
"  X  XXXXXX  X  ",
"   XXXXXXXXXX   ",
"     XXXXXX     ",
"   oooooooooo   ",
"   oooooooooo   ",
"   oo      oo   ",
" oooo      oooo "};
