/* XPM */
static char * digger_right2_xpm[] = {
"16 16 4 1",
" 	c #030205",
".	c #CD871B",
"X	c #2DE7C0",
"o	c #CA1CBB",
"                ",
"                ",
"      ....      ",
"    ........    ",
"    ......  ..  ",
"    ......  ..  ",
"    ........    ",
"                ",
"      XXXX      ",
"      XXXXXX    ",
"      XXXX      ",
"      XXXX      ",
"  oooooooo      ",
"  o       o     ",
"  o       o     ",
"  o       oooo  "};
