/* XPM */
static char * digger_death_xpm[] = {
"16 16 2 1",
" 	c #030205",
".	c #F3F0F9",
"                ",
"       ...      ",
"      . ..      ",
"      . ..      ",
"      . ..      ",
"   ...........  ",
"  . ..........  ",
"  ..   ...   .  ",
"  ..... .....   ",
"      . ..      ",
"      . ..      ",
"    .........   ",
"   .. . .. ...  ",
"  .. ...... ... ",
" . ... .. ......",
"                "};
