/* XPM */
static char * digger_left0_xpm[] = {
"16 16 4 1",
" 	c #030205",
".	c #CD871B",
"X	c #2DE7C0",
"o	c #CA1CBB",
"                ",
"      ....      ",
"    ........    ",
"  ..  ......    ",
"  ..  ......    ",
"    ........    ",
"      ....      ",
"                ",
"      XXXX      ",
"    XXXXXX      ",
"      XXXX      ",
"      XXXX      ",
"         o      ",
"         o      ",
"         o      ",
"      oooo      "};
