/* XPM */
static char * exit_xpm[] = {
"16 16 2 1",
" 	c #2ED157",
".	c #04028F",
" .............. ",
".              .",
".  ..........  .",
". .          . .",
". .  ......  . .",
". . .      . . .",
". . .  ..  . . .",
". . . .  . . . .",
". . . .  . . . .",
". . .  ..  . . .",
". . .      . . .",
". .  ......  . .",
". .          . .",
".  ..........  .",
".              .",
" .............. "};
