/* XPM */
static char * ghost_up_180_xpm[] = {
"16 16 5 1",
" 	c #000000000000",
".	c #D75C00000000",
"X	c #FFFFFFFFFFFF",
"o	c #8617CF3C0000",
"O	c #00008207C71B",
"  .....  .....  ",
"      ....      ",
"     ......     ",
"    ........    ",
"    ........    ",
"    ........    ",
"     ......     ",
"      ....  X   ",
"     ooooooXXX  ",
"  ooooooooXoXoX ",
"  o  oooooo Xo  ",
" ooo oooooo Xoo ",
"     OOOOOX X X ",
"   OOOOOOOOXXX  ",
"   OO      OX   ",
" OOOO      OOOO "};
