/* XPM */
static char * ghost_right_xpm[] = {
"16 16 5 1",
" 	c #CA0F19",
".	c #030205",
"X	c #CF1178",
"o	c #8FE041",
"O	c #276BD3",
"    ............",
"....  ..........",
"..   .  XXXXX...",
"..      ...XXXX.",
"..  ..  .....XX.",
"..  ............",
"..  ............",
"..     .........",
"....ooooo.......",
".ooooooooooo....",
".o..ooooo..o....",
"ooo.ooooo.ooo...",
"....OOOOO.......",
"..OOOOOOOOO.....",
"..OO.....OO.....",
"OOOO.....OOOO..."};
