/* XPM */
static char * ghost_up_l_xpm[] = {
"16 16 5 1",
" 	c #000000000000",
".	c #D75C00000000",
"X	c #8617CF3C0000",
"o	c #FFFFFFFFFFFF",
"O	c #00008207C71B",
"  .....  .....  ",
"      ....      ",
"     ......     ",
"    ........    ",
"    ........    ",
"    ........    ",
"     ......     ",
"      ....      ",
"     XXXXXX     ",
"  XXXXXXXXXXoX  ",
"  X  XXXXXXooo  ",
" XXX XXXXXo oXo ",
"     OOOOOO o   ",
"   OOOOOOOOOo   ",
"   OO    oooo   ",
" OOOO      OOOO "};
