/* XPM */
static char * ghost_left_lr_xpm[] = {
"16 16 6 1",
" 	c #000000000000",
".	c #D75C00000000",
"X	c #C71B00008617",
"o	c #FFFFFFFFFFFF",
"O	c #8617CF3C0000",
"+	c #00008207C71B",
"            ....",
"          ..    ",
"   XXXXX.. ...  ",
" XXXX   ......  ",
" XX     ..  ..  ",
"            ..  ",
"            o.  ",
"         ..ooo  ",
"       OOOoOo o ",
"    OOOOOOOOoOO ",
"    O  OoOOOo O ",
"   OOO oOOOOoOOO",
"      ooooooo   ",
"     ++o++++++  ",
"     ++ o   ++  ",
"   ++++     ++++"};
