/* XPM */
static char * ghost_left_r_xpm[] = {
"16 16 6 1",
" 	c #000000000000",
".	c #D75C00000000",
"X	c #C71B00008617",
"o	c #8617CF3C0000",
"O	c #FFFFFFFFFFFF",
"+	c #00008207C71B",
"            ....",
"          ..    ",
"   XXXXX.. ...  ",
" XXXX   ......  ",
" XX     ..  ..  ",
"            ..  ",
"            ..  ",
"         .....  ",
"       ooooo    ",
"    ooooooooooO ",
"    o  ooooO  O ",
"   ooo oooOo oOo",
"       ++OOOOOO ",
"     +++++O+++  ",
"     ++    O++  ",
"   ++++     ++++"};
