/* XPM */
static char * ghost_right_180_xpm[] = {
"16 16 6 1",
" 	c #D75C00000000",
".	c #000000000000",
"X	c #C71B00008617",
"o	c #8617CF3C0000",
"O	c #FFFFFFFFFFFF",
"+	c #00008207C71B",
"    ............",
"....  ..........",
"..   .  XXXXX...",
"..      ...XXXX.",
"..  ..  .....XX.",
"..  ............",
"..  ............",
"..     .........",
"....ooooo.......",
".ooooooooooo....",
".o..oooooO.oO...",
"ooo.ooooO.oooO..",
"....+++OOOOOOOO.",
"..++++++O++..O..",
"..++.....O+.O...",
"++++.....++++..."};
