/* XPM */
static char * ghost_down_lr_xpm[] = {
"16 16 5 1",
" 	c #000000000000",
".	c #D75C00000000",
"X	c #FFFFFFFFFFFF",
"o	c #8617CF3C0000",
"O	c #00008207C71B",
"  .....  .....  ",
"      ....      ",
"     . .. .     ",
"    . .... .    ",
"    .  ..  .    ",
"    .  ..  .    ",
"     .    . X   ",
"      .... XXX  ",
"     oooooX X X ",
"  ooooooooooXo  ",
"  o  oooXoo Xo  ",
" ooo ooXooo Xoo ",
"     OXXXXXXX   ",
"   OOOOXOOOOO   ",
"   OO   X  OO   ",
" OOOO      OOOO "};
