/* XPM */
static char * ghost_right_lr_xpm[] = {
"16 16 6 1",
" 	c #D75C00000000",
".	c #000000000000",
"X	c #C71B00008617",
"o	c #FFFFFFFFFFFF",
"O	c #8617CF3C0000",
"+	c #00008207C71B",
"    ............",
"....  ..........",
"..   .  XXXXX...",
"..      ...XXXX.",
"..  ..  .....XX.",
"..  ............",
"..  ........o...",
"..     ....ooo..",
"....OOOOO.o.o.o.",
".OOOOOOOOOOOo...",
".O..OOOOo..Oo...",
"OOO.OOOoO.OOo...",
"....++ooooooo...",
"..+++++o+++.....",
"..++....o++.....",
"++++.....++++..."};
