/* XPM */
static char * ground_xpm[] = {
"16 16 2 1",
" 	c #E7E95D",
".	c #920205",
" .. .  . . . . .",
". . . . . . . . ",
"   ... . ..... .",
".  . . .   .... ",
".... .  ... . ..",
" .. . . . . . ..",
". . . . .  .  ..",
" . . ....  .. . ",
". . ... . . . ..",
".. .  .  . . . .",
".  . ... .  .  .",
" . ...  . .   . ",
" . . . . ...  ..",
".. ... ... .  . ",
" ..  .. .   .. .",
"....  . . . ..  "};
