/* XPM */
static char * stone_xpm[] = {
"16 16 2 1",
" 	c #030205",
".	c #670FC7",
"                ",
"      ...       ",
"    .......     ",
"   .........    ",
"  ...........   ",
" .............  ",
" .............  ",
"............... ",
"............. . ",
"........... ... ",
" ........... .  ",
" ......... ...  ",
"  .... . .. .   ",
"   . .... ..    ",
"    ... ...     ",
"      ...       "};
